<svg xmlns="http://www.w3.org/2000/svg" width="707" height="291" fill="none"><path fill="url(#a)" fill-rule="evenodd" d="m353.5-135.885 57.683 20.987 30.692 53.14-10.659 60.43-47.024 39.443h-61.384L275.784-1.328l-10.659-60.43 30.692-53.14 57.683-20.987Zm-50.01 30.128 50.01-18.195 50.01 18.195 26.609 46.072-9.241 52.39-40.768 34.197h-53.22L286.122-7.294l-9.241-52.391 26.609-46.072Z" clip-rule="evenodd"/><path fill="url(#b)" fill-rule="evenodd" d="M440.024-149.257 353.5-180.738l-86.524 31.481-46.038 79.711 15.988 90.644 70.536 59.164h92.076l70.535-59.164 15.989-90.644-46.038-79.711ZM353.5-168.805l-78.851 28.689-41.956 72.642 14.571 82.606 64.28 53.917h83.912l64.28-53.917 14.571-82.606-41.956-72.642-78.851-28.689Z" clip-rule="evenodd"/><path fill="url(#c)" fill-rule="evenodd" d="m353.5-225.59 115.365 41.974L530.25-77.334 508.931 43.525l-94.046 78.885h-122.77l-94.046-78.885-21.319-120.86 61.385-106.281L353.5-225.59Zm-107.692 51.115L353.5-213.657l107.692 39.182 57.302 99.213-19.901 112.82-87.791 73.639H296.198l-87.791-73.639-19.901-112.82 57.302-99.213Z" clip-rule="evenodd"/><path fill="url(#d)" fill-rule="evenodd" d="M497.707-217.975 353.5-270.443l-144.207 52.468-76.731 132.852 26.649 151.074 117.558 98.606h153.462l117.558-98.606 26.649-151.074-76.731-132.852ZM353.5-258.51l-136.534 49.676-72.648 125.783 25.231 143.035 111.303 93.36h145.296l111.303-93.36L562.682-83.05l-72.648-125.783L353.5-258.51Z" clip-rule="evenodd"/><path fill="url(#e)" fill-rule="evenodd" d="m353.5-315.295 173.048 62.961 92.077 159.422-31.978 181.29-141.07 118.327H261.423L120.353 88.377 88.375-92.912l92.077-159.422L353.5-315.295Zm-165.375 72.102L353.5-303.362l165.375 60.169 87.994 152.354-30.56 173.25-134.815 113.081H265.506L130.691 82.411l-30.56-173.25 87.994-152.354Z" clip-rule="evenodd"/><path fill="url(#f)" fill-rule="evenodd" d="M555.389-286.693 353.5-360.148l-201.889 73.455L44.188-100.7l37.307 211.503 164.582 138.049h214.846l164.582-138.049L662.812-100.7 555.389-286.693ZM353.5-348.215l-194.216 70.663L55.944-98.628l35.89 203.465L250.16 237.639h206.68l158.327-132.802 35.89-203.465-103.341-178.924L353.5-348.215Z" clip-rule="evenodd"/><path fill="url(#g)" fill-rule="evenodd" d="M584.231-321.052 353.5-405l-230.731 83.948L0-108.489 42.637 133.23 230.731 291h245.538l188.094-157.77L707-108.489 584.231-321.052ZM353.5-393.067l-223.058 81.156L11.756-106.417l41.22 233.68 181.838 152.524h237.372l181.839-152.524 41.219-233.68-118.686-205.494L353.5-393.067Z" clip-rule="evenodd"/><defs><radialGradient id="a" cx="0" cy="0" r="1" gradientTransform="matrix(128.99867 386.85306 -391.29178 130.47879 353.5 -29.36)" gradientUnits="userSpaceOnUse"><stop/><stop offset="1" stop-opacity="0"/></radialGradient><radialGradient id="b" cx="0" cy="0" r="1" gradientTransform="matrix(128.99867 386.85306 -391.29178 130.47879 353.5 -29.36)" gradientUnits="userSpaceOnUse"><stop/><stop offset="1" stop-opacity="0"/></radialGradient><radialGradient id="c" cx="0" cy="0" r="1" gradientTransform="matrix(128.99867 386.85306 -391.29178 130.47879 353.5 -29.36)" gradientUnits="userSpaceOnUse"><stop/><stop offset="1" stop-opacity="0"/></radialGradient><radialGradient id="d" cx="0" cy="0" r="1" gradientTransform="matrix(128.99867 386.85306 -391.29178 130.47879 353.5 -29.36)" gradientUnits="userSpaceOnUse"><stop/><stop offset="1" stop-opacity="0"/></radialGradient><radialGradient id="e" cx="0" cy="0" r="1" gradientTransform="matrix(128.99867 386.85306 -391.29178 130.47879 353.5 -29.36)" gradientUnits="userSpaceOnUse"><stop/><stop offset="1" stop-opacity="0"/></radialGradient><radialGradient id="f" cx="0" cy="0" r="1" gradientTransform="matrix(128.99867 386.85306 -391.29178 130.47879 353.5 -29.36)" gradientUnits="userSpaceOnUse"><stop/><stop offset="1" stop-opacity="0"/></radialGradient><radialGradient id="g" cx="0" cy="0" r="1" gradientTransform="matrix(128.99867 386.85306 -391.29178 130.47879 353.5 -29.36)" gradientUnits="userSpaceOnUse"><stop/><stop offset="1" stop-opacity="0"/></radialGradient></defs></svg>