<svg xmlns="http://www.w3.org/2000/svg" width="608" height="304" fill="none"><path fill="url(#a)" d="M304 304a303.99 303.99 0 0 1-214.96-89.04A303.996 303.996 0 0 1 0 0h9.354a294.645 294.645 0 1 0 589.292 0H608a303.991 303.991 0 0 1-89.04 214.96A303.99 303.99 0 0 1 304 304Z"/><path fill="url(#b)" d="M304 266.585A266.587 266.587 0 0 1 37.415 0h9.354A257.233 257.233 0 0 0 304 257.231 257.232 257.232 0 0 0 561.231 0h9.354A266.588 266.588 0 0 1 304 266.585Z"/><path fill="url(#c)" d="M141.953 162.047a229.167 229.167 0 0 0 324.094 0A229.166 229.166 0 0 0 533.169 0h-9.354a219.816 219.816 0 1 1-439.63 0H74.83c0 60.78 24.144 119.07 67.122 162.047Z"/><path fill="url(#d)" d="M304 191.754a191.752 191.752 0 0 1-135.59-56.164A191.752 191.752 0 0 1 112.246 0h9.354A182.397 182.397 0 0 0 304 182.4 182.397 182.397 0 0 0 486.4 0h9.354c0 50.856-20.203 99.63-56.164 135.59A191.752 191.752 0 0 1 304 191.754Z"/><path fill="url(#e)" d="M194.866 109.134A154.339 154.339 0 0 0 458.338 0h-9.353a144.986 144.986 0 0 1-289.97 0h-9.353c0 40.933 16.26 80.19 45.204 109.134Z"/><path fill="url(#f)" d="M304 116.923A116.924 116.924 0 0 1 187.077 0h9.354a107.57 107.57 0 1 0 215.138 0h9.354A116.924 116.924 0 0 1 304 116.923Z"/><defs><linearGradient id="a" x1="304" x2="304" y1="304" y2="-14.031" gradientUnits="userSpaceOnUse"><stop/><stop offset="1" stop-opacity="0"/></linearGradient><linearGradient id="b" x1="304" x2="304" y1="304" y2="-14.031" gradientUnits="userSpaceOnUse"><stop/><stop offset="1" stop-opacity="0"/></linearGradient><linearGradient id="c" x1="304" x2="304" y1="304" y2="-14.031" gradientUnits="userSpaceOnUse"><stop/><stop offset="1" stop-opacity="0"/></linearGradient><linearGradient id="d" x1="304" x2="304" y1="304" y2="-14.031" gradientUnits="userSpaceOnUse"><stop/><stop offset="1" stop-opacity="0"/></linearGradient><linearGradient id="e" x1="304" x2="304" y1="304" y2="-14.031" gradientUnits="userSpaceOnUse"><stop/><stop offset="1" stop-opacity="0"/></linearGradient><linearGradient id="f" x1="304" x2="304" y1="304" y2="-14.031" gradientUnits="userSpaceOnUse"><stop/><stop offset="1" stop-opacity="0"/></linearGradient></defs></svg>