<svg xmlns="http://www.w3.org/2000/svg" width="822" height="548" fill="none"><path fill="url(#a)" fill-rule="evenodd" d="M548 205.5c37.831 0 68.5 30.669 68.5 68.5 0 37.832-30.669 68.5-68.5 68.5H274c-37.831 0-68.5-30.668-68.5-68.5 0-37.831 30.669-68.5 68.5-68.5h274Zm0 123.3H274c-30.265 0-54.8-24.535-54.8-54.8 0-30.265 24.535-54.8 54.8-54.8h274c30.265 0 54.8 24.535 54.8 54.8 0 30.265-24.535 54.8-54.8 54.8Z" clip-rule="evenodd"/><path fill="url(#b)" fill-rule="evenodd" d="M657.6 274c0-60.53-49.07-109.6-109.6-109.6H274c-60.53 0-109.6 49.07-109.6 109.6 0 60.53 49.07 109.6 109.6 109.6h274c60.53 0 109.6-49.07 109.6-109.6ZM274 369.9h274c52.964 0 95.9-42.936 95.9-95.9 0-52.964-42.936-95.9-95.9-95.9H274c-52.964 0-95.9 42.936-95.9 95.9 0 52.964 42.936 95.9 95.9 95.9Z" clip-rule="evenodd"/><path fill="url(#c)" fill-rule="evenodd" d="M548 123.3c83.229 0 150.7 67.471 150.7 150.7 0 83.229-67.471 150.7-150.7 150.7H274c-83.229 0-150.7-67.471-150.7-150.7 0-83.229 67.471-150.7 150.7-150.7h274Zm0 287.7H274c-75.663 0-137-61.337-137-137s61.337-137 137-137h274c75.663 0 137 61.337 137 137s-61.337 137-137 137Z" clip-rule="evenodd"/><path fill="url(#d)" fill-rule="evenodd" d="M739.8 274c0-105.928-85.872-191.8-191.8-191.8H274C168.072 82.2 82.2 168.072 82.2 274c0 105.928 85.872 191.8 191.8 191.8h274c105.928 0 191.8-85.872 191.8-191.8ZM274 452.1h274c98.362 0 178.1-79.738 178.1-178.1S646.362 95.9 548 95.9H274c-98.362 0-178.1 79.738-178.1 178.1S175.638 452.1 274 452.1Z" clip-rule="evenodd"/><path fill="url(#e)" fill-rule="evenodd" d="M548 41.1c128.627 0 232.9 104.273 232.9 232.9S676.627 506.9 548 506.9H274C145.373 506.9 41.1 402.627 41.1 274S145.373 41.1 274 41.1h274Zm0 452.1H274c-121.061 0-219.2-98.139-219.2-219.2 0-121.061 98.139-219.2 219.2-219.2h274c121.061 0 219.2 98.139 219.2 219.2 0 121.061-98.139 219.2-219.2 219.2Z" clip-rule="evenodd"/><path fill="url(#f)" fill-rule="evenodd" d="M548 0c151.326 0 274 122.674 274 274S699.326 548 548 548H274C122.674 548 0 425.326 0 274S122.674 0 274 0h274Zm0 534.3H274C130.24 534.3 13.7 417.76 13.7 274S130.24 13.7 274 13.7h274c143.76 0 260.3 116.54 260.3 260.3S691.76 534.3 548 534.3Z" clip-rule="evenodd"/><defs><radialGradient id="a" cx="0" cy="0" r="1" gradientTransform="rotate(168.69 191.934 157.349) scale(558.853 372.568)" gradientUnits="userSpaceOnUse"><stop stop-color="#fff"/><stop offset="1" stop-color="#fff" stop-opacity="0"/></radialGradient><radialGradient id="b" cx="0" cy="0" r="1" gradientTransform="rotate(168.69 191.934 157.349) scale(558.853 372.568)" gradientUnits="userSpaceOnUse"><stop stop-color="#fff"/><stop offset="1" stop-color="#fff" stop-opacity="0"/></radialGradient><radialGradient id="c" cx="0" cy="0" r="1" gradientTransform="rotate(168.69 191.934 157.349) scale(558.853 372.568)" gradientUnits="userSpaceOnUse"><stop stop-color="#fff"/><stop offset="1" stop-color="#fff" stop-opacity="0"/></radialGradient><radialGradient id="d" cx="0" cy="0" r="1" gradientTransform="rotate(168.69 191.934 157.349) scale(558.853 372.568)" gradientUnits="userSpaceOnUse"><stop stop-color="#fff"/><stop offset="1" stop-color="#fff" stop-opacity="0"/></radialGradient><radialGradient id="e" cx="0" cy="0" r="1" gradientTransform="rotate(168.69 191.934 157.349) scale(558.853 372.568)" gradientUnits="userSpaceOnUse"><stop stop-color="#fff"/><stop offset="1" stop-color="#fff" stop-opacity="0"/></radialGradient><radialGradient id="f" cx="0" cy="0" r="1" gradientTransform="rotate(168.69 191.934 157.349) scale(558.853 372.568)" gradientUnits="userSpaceOnUse"><stop stop-color="#fff"/><stop offset="1" stop-color="#fff" stop-opacity="0"/></radialGradient></defs></svg>