<svg xmlns="http://www.w3.org/2000/svg" width="698" height="515" fill="none"><path fill="url(#a)" fill-rule="evenodd" d="M424 188.5c37.831 0 68.5 30.669 68.5 68.5 0 37.832-30.669 68.5-68.5 68.5H150c-37.831 0-68.5-30.668-68.5-68.5 0-37.831 30.669-68.5 68.5-68.5h274Zm0 123.3H150c-30.265 0-54.8-24.535-54.8-54.8 0-30.265 24.535-54.8 54.8-54.8h274c30.265 0 54.8 24.535 54.8 54.8 0 30.265-24.535 54.8-54.8 54.8Z" clip-rule="evenodd"/><path fill="url(#b)" fill-rule="evenodd" d="M533.6 257c0-60.53-49.07-109.6-109.6-109.6H150c-60.53 0-109.6 49.07-109.6 109.6 0 60.53 49.07 109.6 109.6 109.6h274c60.53 0 109.6-49.07 109.6-109.6ZM150 352.9h274c52.964 0 95.9-42.936 95.9-95.9 0-52.964-42.936-95.9-95.9-95.9H150c-52.964 0-95.9 42.936-95.9 95.9 0 52.964 42.936 95.9 95.9 95.9Z" clip-rule="evenodd"/><path fill="url(#c)" fill-rule="evenodd" d="M424 106.3c83.229 0 150.7 67.471 150.7 150.7 0 83.229-67.471 150.7-150.7 150.7H150C66.77 407.7-.7 340.229-.7 257c0-83.229 67.47-150.7 150.7-150.7h274Zm0 287.7H150c-75.663 0-137-61.337-137-137s61.337-137 137-137h274c75.663 0 137 61.337 137 137s-61.337 137-137 137Z" clip-rule="evenodd"/><path fill="url(#d)" fill-rule="evenodd" d="M615.8 257c0-105.928-85.872-191.8-191.8-191.8H150C44.072 65.2-41.8 151.072-41.8 257c0 105.928 85.872 191.8 191.8 191.8h274c105.928 0 191.8-85.872 191.8-191.8ZM150 435.1h274c98.362 0 178.1-79.738 178.1-178.1S522.362 78.9 424 78.9H150C51.638 78.9-28.1 158.638-28.1 257S51.638 435.1 150 435.1Z" clip-rule="evenodd"/><path fill="url(#e)" fill-rule="evenodd" d="M424 24.1c128.627 0 232.9 104.273 232.9 232.9S552.627 489.9 424 489.9H150C21.373 489.9-82.9 385.627-82.9 257S21.373 24.1 150 24.1h274Zm0 452.1H150C28.94 476.2-69.2 378.061-69.2 257c0-121.061 98.14-219.2 219.2-219.2h274c121.061 0 219.2 98.139 219.2 219.2 0 121.061-98.139 219.2-219.2 219.2Z" clip-rule="evenodd"/><path fill="url(#f)" fill-rule="evenodd" d="M424-17c151.326 0 274 122.674 274 274S575.326 531 424 531H150c-151.326 0-274-122.674-274-274S-1.326-17 150-17h274Zm0 534.3H150C6.24 517.3-110.3 400.76-110.3 257S6.24-3.3 150-3.3h274c143.76 0 260.3 116.54 260.3 260.3S567.76 517.3 424 517.3Z" clip-rule="evenodd"/><defs><radialGradient id="a" cx="0" cy="0" r="1" gradientTransform="rotate(168.69 130.776 142.71) scale(558.853 372.568)" gradientUnits="userSpaceOnUse"><stop stop-color="#fff"/><stop offset="1" stop-color="#fff" stop-opacity="0"/></radialGradient><radialGradient id="b" cx="0" cy="0" r="1" gradientTransform="rotate(168.69 130.776 142.71) scale(558.853 372.568)" gradientUnits="userSpaceOnUse"><stop stop-color="#fff"/><stop offset="1" stop-color="#fff" stop-opacity="0"/></radialGradient><radialGradient id="c" cx="0" cy="0" r="1" gradientTransform="rotate(168.69 130.776 142.71) scale(558.853 372.568)" gradientUnits="userSpaceOnUse"><stop stop-color="#fff"/><stop offset="1" stop-color="#fff" stop-opacity="0"/></radialGradient><radialGradient id="d" cx="0" cy="0" r="1" gradientTransform="rotate(168.69 130.776 142.71) scale(558.853 372.568)" gradientUnits="userSpaceOnUse"><stop stop-color="#fff"/><stop offset="1" stop-color="#fff" stop-opacity="0"/></radialGradient><radialGradient id="e" cx="0" cy="0" r="1" gradientTransform="rotate(168.69 130.776 142.71) scale(558.853 372.568)" gradientUnits="userSpaceOnUse"><stop stop-color="#fff"/><stop offset="1" stop-color="#fff" stop-opacity="0"/></radialGradient><radialGradient id="f" cx="0" cy="0" r="1" gradientTransform="rotate(168.69 130.776 142.71) scale(558.853 372.568)" gradientUnits="userSpaceOnUse"><stop stop-color="#fff"/><stop offset="1" stop-color="#fff" stop-opacity="0"/></radialGradient></defs></svg>