<svg xmlns="http://www.w3.org/2000/svg" width="548" height="548"><path d="M548 274C548 122.676 425.324 0 274 0S0 122.676 0 274s122.676 274 274 274 274-122.676 274-274Zm-308.25 0c0 120.246 9.684 222.402 23.148 259.29-2.543-2.638-5.289-6.27-8.191-11.18-7.594-12.848-14.73-32.008-20.836-56.438-12.184-48.727-19.809-116.496-19.809-191.672s7.625-142.945 19.81-191.672c6.105-24.43 13.241-43.59 20.835-56.437 2.902-4.91 5.648-8.543 8.191-11.18C249.434 51.6 239.75 153.754 239.75 274Zm53.543 248.11c-2.902 4.91-5.648 8.542-8.191 11.18C298.566 496.401 308.25 394.245 308.25 274c0-120.246-9.684-222.398-23.148-259.29 2.543 2.638 5.289 6.27 8.191 11.18 7.594 12.848 14.73 32.008 20.836 56.438 12.183 48.727 19.808 116.496 19.808 191.672s-7.625 142.945-19.808 191.672c-6.106 24.43-13.242 43.59-20.836 56.437Zm-44.309 7.046c-2.851-2.36-5.71-5.144-8.574-8.367-11.347-12.805-21.96-31.816-31.047-56.047-18.152-48.398-29.55-115.836-29.55-190.742 0-74.906 11.398-142.344 29.55-190.742 9.086-24.23 19.7-43.242 31.047-56.047 2.863-3.223 5.723-6.008 8.574-8.367C223.527 58.809 205.5 157.984 205.5 274c0 116.016 18.027 215.191 43.484 255.156Zm50.032 0c2.851-2.36 5.71-5.144 8.574-8.367 11.348-12.805 21.96-31.816 31.047-56.047 18.152-48.398 29.55-115.836 29.55-190.742 0-74.906-11.398-142.344-29.55-190.742-9.086-24.23-19.7-43.242-31.047-56.047-2.863-3.223-5.723-6.008-8.574-8.367C324.473 58.809 342.5 157.984 342.5 274c0 116.016-18.027 215.191-43.484 255.156Zm-114.23-65.238c13.905 27.816 30.327 48.5 47.976 61.125C196.547 482.676 171.25 386.215 171.25 274s25.297-208.676 61.512-251.043c-17.649 12.625-34.07 33.309-47.977 61.125-24.082 48.16-39.222 115.297-39.222 189.918 0 74.621 15.14 141.758 39.222 189.918Zm178.429 0c-13.906 27.816-30.328 48.5-47.977 61.125C351.453 482.676 376.75 386.215 376.75 274S351.453 65.324 315.238 22.957c17.649 12.625 34.07 33.309 47.977 61.125 24.082 48.16 39.223 115.297 39.223 189.918 0 74.621-15.141 141.758-39.223 189.918Zm-148.54 57.133c-20.277-13.059-38.804-32.719-54.507-57.84-30.012-48.024-48.856-114.895-48.856-189.211 0-74.316 18.844-141.188 48.856-189.21 15.703-25.122 34.23-44.782 54.508-57.84C168.719 71.171 137 165.175 137 274c0 108.824 31.719 202.828 77.676 247.05Zm118.65 0c20.277-13.059 38.804-32.719 54.507-57.84 30.012-48.024 48.856-114.895 48.856-189.211 0-74.316-18.844-141.188-48.856-189.21-15.703-25.122-34.23-44.782-54.508-57.84C379.281 71.171 411 165.175 411 274c0 108.824-31.719 202.828-77.676 247.05Zm-197.786-58.442c17.145 22.86 37.254 41.38 59.395 54.504C140.152 471.41 102.75 379.691 102.75 274s37.402-197.41 92.184-243.113c-22.141 13.125-42.25 31.644-59.395 54.504C99.566 133.355 77.063 200.01 77.063 274c0 73.988 22.503 140.645 58.476 188.61Zm276.922 0c-17.145 22.86-37.254 41.38-59.395 54.504C407.848 471.41 445.25 379.691 445.25 274S407.848 76.59 353.066 30.887c22.141 13.125 42.25 31.644 59.395 54.504 35.973 47.964 58.476 114.62 58.476 188.609 0 73.988-22.503 140.645-58.476 188.61Zm-238.973 50.438C96.48 470.27 42.813 379.828 42.813 274S96.48 77.73 173.488 34.953C110.832 81.891 68.5 171.355 68.5 274c0 102.645 42.332 192.11 104.988 239.047Zm201.024 0C451.52 470.27 505.187 379.828 505.187 274S451.52 77.73 374.512 34.953C437.168 81.891 479.5 171.355 479.5 274c0 102.645-42.332 192.11-104.988 239.047ZM8.562 274c0 102.309 57.88 191.094 142.68 235.406C81.172 461.582 34.25 374.051 34.25 274c0-100.05 46.922-187.582 116.992-235.406C66.442 82.906 8.562 171.69 8.562 274Zm530.875 0c0 102.309-57.878 191.094-142.68 235.406C466.829 461.582 513.75 374.051 513.75 274c0-100.05-46.922-187.582-116.992-235.406 84.8 44.312 142.68 133.097 142.68 235.406ZM289.724 466.684c6.14-49.133 9.964-117.262 9.964-192.684s-3.824-143.55-9.964-192.684c-3.078-24.629-6.7-44.156-10.602-57.355a126.28 126.28 0 0 0-.84-2.73v505.535c.278-.864.559-1.774.84-2.727 3.902-13.2 7.524-32.726 10.602-57.355ZM269.719 21.23v505.536c-.278-.864-.559-1.774-.84-2.727-3.902-13.2-7.524-32.726-10.602-57.355-6.14-49.133-9.964-117.262-9.964-192.684s3.824-143.55 9.964-192.684c3.078-24.629 6.7-44.156 10.602-57.355.281-.953.562-1.863.84-2.73Zm0 0" style="stroke:none;fill-rule:evenodd;fill:url(#a)"/><defs><linearGradient id="a" x1="262.18" x2="602.305" y1="42.516" y2="935.344" gradientTransform="scale(.60419)" gradientUnits="userSpaceOnUse"><stop offset="0" style="stop-color:#000;stop-opacity:1"/><stop offset="1" style="stop-color:#000;stop-opacity:0"/></linearGradient></defs></svg>