<svg xmlns="http://www.w3.org/2000/svg" width="773" height="477" fill="none"><path fill="url(#a)" fill-rule="evenodd" d="M907 123.5C907-126.961 703.961-330 453.5-330S0-126.961 0 123.5 203.039 577 453.5 577 907 373.961 907 123.5Zm-510.188 0c0 199.02 16.026 368.097 38.316 429.154-4.209-4.365-8.758-10.381-13.559-18.503-12.569-21.266-24.38-52.982-34.488-93.415-20.163-80.649-32.784-192.815-32.784-317.236 0-124.42 12.621-236.587 32.784-317.236 10.108-40.433 21.919-72.149 34.488-93.415 4.801-8.121 9.35-14.138 13.559-18.503-22.29 61.057-38.316 230.134-38.316 429.154Zm88.619 410.651c-4.801 8.122-9.35 14.138-13.559 18.503 22.29-61.057 38.316-230.134 38.316-429.154s-16.026-368.097-38.316-429.154c4.209 4.365 8.758 10.381 13.559 18.503 12.569 21.266 24.38 52.982 34.488 93.415C540.082-113.087 552.703-.921 552.703 123.5c0 124.421-12.621 236.587-32.784 317.236-10.108 40.433-21.919 72.149-34.488 93.415Zm-73.332 11.661c-4.722-3.905-9.457-8.513-14.191-13.852-18.786-21.189-36.352-52.659-51.391-92.763-30.039-80.103-48.908-191.716-48.908-315.697s18.869-235.594 48.908-315.697c15.039-40.104 32.605-71.574 51.391-92.763 4.734-5.339 9.469-9.947 14.191-13.852-42.139 66.148-71.974 230.293-71.974 422.312s29.835 356.164 71.974 422.312Zm82.802 0c4.722-3.905 9.457-8.513 14.191-13.852 18.786-21.189 36.352-52.659 51.391-92.763 30.039-80.103 48.908-191.716 48.908-315.697s-18.869-235.594-48.908-315.697c-15.039-40.104-32.605-71.574-51.391-92.763-4.734-5.339-9.469-9.947-14.191-13.852 42.139 66.148 71.974 230.293 71.974 422.312s-29.835 356.164-71.974 422.312ZM305.839 437.835c23.018 46.036 50.198 80.275 79.41 101.166C325.307 468.883 283.438 309.23 283.438 123.5s41.869-345.383 101.811-415.501c-29.212 20.891-56.392 55.13-79.41 101.166C265.983-111.122 240.922-.008 240.922 123.5c0 123.508 25.061 234.622 64.917 314.335Zm295.322 0c-23.018 46.036-50.198 80.275-79.41 101.166C581.693 468.883 623.562 309.23 623.562 123.5s-41.869-345.383-101.811-415.501c29.212 20.891 56.392 55.13 79.41 101.166C641.017-111.122 666.078-.008 666.078 123.5c0 123.508-25.061 234.622-64.917 314.335Zm-245.846 94.561c-33.564-21.613-64.23-54.154-90.218-95.734-49.675-79.48-80.863-190.163-80.863-313.162 0-123 31.188-233.682 80.863-313.162 25.988-41.58 56.654-74.121 90.218-95.734C279.25-212.203 226.75-56.614 226.75 123.5s52.5 335.703 128.565 408.896Zm196.37 0c33.564-21.613 64.23-54.154 90.218-95.734 49.675-79.48 80.863-190.163 80.863-313.162 0-123-31.188-233.682-80.863-313.162-25.988-41.58-56.654-74.121-90.218-95.734C627.75-212.203 680.25-56.614 680.25 123.5s-52.5 335.703-128.565 408.896ZM224.333 435.67c28.373 37.831 61.659 68.483 98.305 90.207-90.671-75.644-152.576-227.443-152.576-402.377s61.905-326.733 152.576-402.377c-36.646 21.724-69.932 52.376-98.305 90.207-59.541 79.387-96.786 189.71-96.786 312.17 0 122.461 37.245 232.783 96.786 312.17Zm458.334 0c-28.373 37.831-61.659 68.483-98.306 90.207 90.671-75.644 152.577-227.443 152.577-402.377s-61.906-326.733-152.577-402.377c36.647 21.724 69.933 52.376 98.306 90.207 59.541 79.387 96.786 189.71 96.786 312.17 0 122.461-37.245 232.783-96.786 312.17Zm-395.523 83.477C159.684 448.347 70.859 298.658 70.859 123.5s88.825-324.847 216.285-395.647C183.44-194.463 113.375-46.391 113.375 123.5s70.065 317.963 173.769 395.647Zm332.712 0c127.46-70.8 216.285-220.489 216.285-395.647s-88.825-324.847-216.285-395.647C723.56-194.463 793.625-46.391 793.625 123.5S723.56 441.463 619.856 519.147ZM14.172 123.5c0 169.329 95.797 316.284 236.151 389.625C134.351 433.966 56.687 289.098 56.687 123.5s77.664-310.466 193.636-389.624C109.969-192.784 14.172-45.829 14.172 123.5Zm878.656 0c0 169.329-95.797 316.284-236.151 389.625C772.649 433.966 850.312 289.098 850.312 123.5s-77.663-310.466-193.635-389.624C797.031-192.784 892.828-45.829 892.828 123.5ZM479.522 442.415c10.165-81.322 16.494-194.082 16.494-318.915 0-124.833-6.329-237.593-16.494-318.915-5.095-40.76-11.09-73.079-17.547-94.93a207.848 207.848 0 0 0-1.389-4.513v836.716c.46-1.434.923-2.938 1.389-4.513 6.457-21.851 12.452-54.17 17.547-94.93Zm-33.108-737.273v836.716c-.46-1.434-.923-2.938-1.389-4.513-6.457-21.851-12.452-54.17-17.547-94.93-10.165-81.322-16.494-194.082-16.494-318.915 0-124.833 6.329-237.593 16.494-318.915 5.095-40.76 11.09-73.079 17.547-94.93.466-1.575.929-3.079 1.389-4.513Z" clip-rule="evenodd"/><defs><linearGradient id="a" x1="262.18" x2="602.305" y1="-287.484" y2="605.344" gradientUnits="userSpaceOnUse"><stop/><stop offset="1" stop-opacity="0"/></linearGradient></defs></svg>